<svg width="1em" height="1em" viewBox="0 0 220 32" fill="none" xmlns="http://www.w3.org/2000/svg">
  <rect x="1" y="1" width="30" height="30" rx="10" fill="url(#paint0_linear_2001_2)" />
  <rect x="1.5" y="1.5" width="29" height="29" rx="9.5" stroke="url(#paint1_linear_2001_2)" stroke-opacity="0.52" />
  <path
    d="M9 8.5C9 7.67157 9.67157 7 10.5 7H12.75C13.5784 7 14.25 7.67157 14.25 8.5V16.25H19.75V8.5C19.75 7.67157 20.4216 7 21.25 7H23.5C24.3284 7 25 7.67157 25 8.5V23.5C25 24.3284 24.3284 25 23.5 25H21.25C20.4216 25 19.75 24.3284 19.75 23.5V20.25H14.25V23.5C14.25 24.3284 13.5784 25 12.75 25H10.5C9.67157 25 9 24.3284 9 23.5V8.5Z"
    fill="#F8FAFC"
  />
  <path
    d="M14.8672 11.375H26.9609C27.7625 11.375 28.4123 12.0248 28.4123 12.8264C28.4123 13.4148 28.0554 13.9446 27.509 14.1654L21.9406 16.4156C21.5988 16.5537 21.2167 16.5665 20.8663 16.4514L14.8672 14.4803V11.375Z"
    fill="url(#paint2_linear_2001_2)"
  />
  <circle cx="25.75" cy="8.75" r="2.75" fill="#FDBA74" fill-opacity="0.92" />
  <text
    x="41"
    y="15"
    fill="currentColor"
    font-family="'Avenir Next', 'Segoe UI', 'Helvetica Neue', Arial, sans-serif"
    font-size="14.5"
    font-weight="800"
    letter-spacing="0.02em"
  >
    H-toolkit
  </text>
  <text
    x="41"
    y="24.5"
    fill="currentColor"
    fill-opacity="0.58"
    font-family="'Avenir Next', 'Segoe UI', 'Helvetica Neue', Arial, sans-serif"
    font-size="6.1"
    font-weight="700"
    letter-spacing="0.3em"
  >
    DESKTOP UTILITY KIT
  </text>
  <defs>
    <linearGradient id="paint0_linear_2001_2" x1="4.21429" y1="2.92857" x2="28.4286" y2="29.8571" gradientUnits="userSpaceOnUse">
      <stop stop-color="#12253F" />
      <stop offset="0.52" stop-color="#175E73" />
      <stop offset="1" stop-color="#1D87B8" />
    </linearGradient>
    <linearGradient id="paint1_linear_2001_2" x1="5.82143" y1="2.60714" x2="27.3571" y2="31" gradientUnits="userSpaceOnUse">
      <stop stop-color="#F8FAFC" />
      <stop offset="1" stop-color="#7DD3FC" />
    </linearGradient>
    <linearGradient id="paint2_linear_2001_2" x1="14.8672" y1="11.375" x2="25.8253" y2="19.1408" gradientUnits="userSpaceOnUse">
      <stop stop-color="#FDBA74" />
      <stop offset="1" stop-color="#FB923C" />
    </linearGradient>
  </defs>
</svg>
