<svg width="1024" height="1024" viewBox="0 0 64 64" fill="none" xmlns="http://www.w3.org/2000/svg">
  <rect x="4" y="4" width="56" height="56" rx="18" fill="url(#paint0_linear_2001_3)" />
  <rect x="4.75" y="4.75" width="54.5" height="54.5" rx="17.25" stroke="url(#paint1_linear_2001_3)" stroke-opacity="0.48" stroke-width="1.5" />
  <path
    d="M19 17C19 15.8954 19.8954 15 21 15H25C26.1046 15 27 15.8954 27 17V28H37V17C37 15.8954 37.8954 15 39 15H43C44.1046 15 45 15.8954 45 17V47C45 48.1046 44.1046 49 43 49H39C37.8954 49 37 48.1046 37 47V36H27V47C27 48.1046 26.1046 49 25 49H21C19.8954 49 19 48.1046 19 47V17Z"
    fill="#F8FAFC"
  />
  <path
    d="M31.0877 24.0508H47.4358C48.5045 24.0508 49.3708 24.917 49.3708 25.9858C49.3708 26.7707 48.8949 27.4773 48.1662 27.7717L40.6391 30.8122C40.1836 30.9962 39.6761 31.0131 39.2092 30.8598L31.0877 28.1922V24.0508Z"
    fill="url(#paint2_linear_2001_3)"
  />
  <circle cx="45.5" cy="18.5" r="4.5" fill="#FDBA74" fill-opacity="0.92" />
  <defs>
    <linearGradient id="paint0_linear_2001_3" x1="10" y1="8" x2="55" y2="58" gradientUnits="userSpaceOnUse">
      <stop stop-color="#12253F" />
      <stop offset="0.52" stop-color="#175E73" />
      <stop offset="1" stop-color="#1D87B8" />
    </linearGradient>
    <linearGradient id="paint1_linear_2001_3" x1="12" y1="7" x2="53" y2="60" gradientUnits="userSpaceOnUse">
      <stop stop-color="#F8FAFC" />
      <stop offset="1" stop-color="#7DD3FC" />
    </linearGradient>
    <linearGradient id="paint2_linear_2001_3" x1="31.0877" y1="24.0508" x2="45.962" y2="34.4264" gradientUnits="userSpaceOnUse">
      <stop stop-color="#FDBA74" />
      <stop offset="1" stop-color="#FB923C" />
    </linearGradient>
  </defs>
</svg>
